<mxfile host="65bd71144e">
    <diagram id="1RYAaPTl_LvFCfh7oRxd" name="Page-1">
        <mxGraphModel dx="796" dy="427" grid="1" gridSize="10" guides="1" tooltips="1" connect="1" arrows="1" fold="1" page="0" pageScale="1" pageWidth="1100" pageHeight="850" math="0" shadow="0">
            <root>
                <mxCell id="0"/>
                <mxCell id="1" parent="0"/>
                <mxCell id="26" style="edgeStyle=none;html=1;exitX=1;exitY=0.5;exitDx=0;exitDy=0;entryX=0;entryY=0.5;entryDx=0;entryDy=0;fillColor=#ffe6cc;strokeColor=#d79b00;" parent="1" source="2" target="24" edge="1">
                    <mxGeometry relative="1" as="geometry"/>
                </mxCell>
                <mxCell id="2" value="&lt;font&gt;Initial&lt;/font&gt;&lt;div&gt;&lt;font&gt;commit&lt;/font&gt;&lt;/div&gt;" style="ellipse;whiteSpace=wrap;html=1;aspect=fixed;fillColor=#ffe6cc;strokeColor=#d79b00;" parent="1" vertex="1">
                    <mxGeometry x="320" y="160" width="80" height="80" as="geometry"/>
                </mxCell>
                <mxCell id="3" value="&lt;font&gt;main&lt;/font&gt;" style="text;html=1;align=center;verticalAlign=middle;whiteSpace=wrap;rounded=0;fillColor=#ffe6cc;strokeColor=#d79b00;" parent="1" vertex="1">
                    <mxGeometry x="240" y="180" width="60" height="30" as="geometry"/>
                </mxCell>
                <mxCell id="4" value="&lt;font&gt;develop&lt;/font&gt;" style="text;html=1;align=center;verticalAlign=middle;whiteSpace=wrap;rounded=0;fillColor=#dae8fc;strokeColor=#6c8ebf;" parent="1" vertex="1">
                    <mxGeometry x="240" y="285" width="60" height="30" as="geometry"/>
                </mxCell>
                <mxCell id="21" style="edgeStyle=none;html=1;exitX=1;exitY=0.5;exitDx=0;exitDy=0;entryX=0;entryY=0.5;entryDx=0;entryDy=0;endArrow=none;endFill=0;fillColor=#dae8fc;strokeColor=#6c8ebf;" parent="1" source="5" target="18" edge="1">
                    <mxGeometry relative="1" as="geometry"/>
                </mxCell>
                <mxCell id="5" value="&lt;font&gt;Initial&lt;/font&gt;&lt;div&gt;&lt;font&gt;commit&lt;/font&gt;&lt;/div&gt;" style="ellipse;whiteSpace=wrap;html=1;aspect=fixed;fillColor=#dae8fc;strokeColor=#6c8ebf;" parent="1" vertex="1">
                    <mxGeometry x="400" y="260" width="80" height="80" as="geometry"/>
                </mxCell>
                <mxCell id="7" value="&lt;font&gt;feature_1&lt;/font&gt;" style="text;html=1;align=center;verticalAlign=middle;whiteSpace=wrap;rounded=0;fillColor=#f8cecc;strokeColor=#b85450;" parent="1" vertex="1">
                    <mxGeometry x="280" y="385" width="130" height="30" as="geometry"/>
                </mxCell>
                <mxCell id="15" style="edgeStyle=none;html=1;exitX=1;exitY=0.5;exitDx=0;exitDy=0;entryX=0;entryY=0.5;entryDx=0;entryDy=0;fillColor=#f8cecc;strokeColor=#b85450;" parent="1" source="8" target="14" edge="1">
                    <mxGeometry relative="1" as="geometry"/>
                </mxCell>
                <mxCell id="8" value="&lt;font&gt;Initial&lt;/font&gt;&lt;div&gt;&lt;font&gt;commit&lt;/font&gt;&lt;/div&gt;" style="ellipse;whiteSpace=wrap;html=1;aspect=fixed;fillColor=#f8cecc;strokeColor=#b85450;" parent="1" vertex="1">
                    <mxGeometry x="480" y="360" width="80" height="80" as="geometry"/>
                </mxCell>
                <mxCell id="9" value="&lt;font&gt;feature_2&lt;/font&gt;" style="text;html=1;align=center;verticalAlign=middle;whiteSpace=wrap;rounded=0;fillColor=#d5e8d4;strokeColor=#82b366;" parent="1" vertex="1">
                    <mxGeometry x="275" y="485" width="140" height="30" as="geometry"/>
                </mxCell>
                <mxCell id="17" style="edgeStyle=none;html=1;exitX=1;exitY=0.5;exitDx=0;exitDy=0;entryX=0;entryY=0.5;entryDx=0;entryDy=0;fillColor=#d5e8d4;strokeColor=#82b366;" parent="1" source="10" target="16" edge="1">
                    <mxGeometry relative="1" as="geometry"/>
                </mxCell>
                <mxCell id="10" value="&lt;font&gt;Initial&lt;/font&gt;&lt;div&gt;&lt;font&gt;commit&lt;/font&gt;&lt;/div&gt;" style="ellipse;whiteSpace=wrap;html=1;aspect=fixed;fillColor=#d5e8d4;strokeColor=#82b366;" parent="1" vertex="1">
                    <mxGeometry x="480" y="460" width="80" height="80" as="geometry"/>
                </mxCell>
                <mxCell id="19" style="edgeStyle=none;html=1;exitX=1;exitY=0.5;exitDx=0;exitDy=0;rounded=1;curved=0;entryX=0.5;entryY=1;entryDx=0;entryDy=0;fillColor=#f8cecc;strokeColor=#b85450;" parent="1" source="14" target="18" edge="1">
                    <mxGeometry relative="1" as="geometry">
                        <Array as="points">
                            <mxPoint x="720" y="400"/>
                        </Array>
                    </mxGeometry>
                </mxCell>
                <mxCell id="14" value="&lt;font&gt;feature_1&lt;/font&gt;&lt;div&gt;&lt;font&gt;ok&lt;/font&gt;&lt;/div&gt;" style="ellipse;whiteSpace=wrap;html=1;aspect=fixed;fillColor=#f8cecc;strokeColor=#b85450;" parent="1" vertex="1">
                    <mxGeometry x="600" y="360" width="80" height="80" as="geometry"/>
                </mxCell>
                <mxCell id="16" value="&lt;span&gt;&lt;font&gt;feature_2&lt;/font&gt;&lt;/span&gt;&lt;div&gt;&lt;font&gt;ok&lt;/font&gt;&lt;/div&gt;" style="ellipse;whiteSpace=wrap;html=1;aspect=fixed;fillColor=#d5e8d4;strokeColor=#82b366;" parent="1" vertex="1">
                    <mxGeometry x="760" y="460" width="80" height="80" as="geometry"/>
                </mxCell>
                <mxCell id="62" style="edgeStyle=none;html=1;exitX=1;exitY=0.5;exitDx=0;exitDy=0;entryX=0;entryY=0.5;entryDx=0;entryDy=0;endArrow=none;endFill=0;fillColor=#dae8fc;strokeColor=#6c8ebf;" parent="1" source="18" target="20" edge="1">
                    <mxGeometry relative="1" as="geometry"/>
                </mxCell>
                <mxCell id="18" value="&lt;span&gt;&lt;font&gt;feature_1&lt;/font&gt;&lt;/span&gt;&lt;div&gt;&lt;font&gt;ok&lt;/font&gt;&lt;/div&gt;" style="ellipse;whiteSpace=wrap;html=1;aspect=fixed;fillColor=#dae8fc;strokeColor=#6c8ebf;" parent="1" vertex="1">
                    <mxGeometry x="680" y="260" width="80" height="80" as="geometry"/>
                </mxCell>
                <mxCell id="67" style="edgeStyle=none;html=1;exitX=1;exitY=0.5;exitDx=0;exitDy=0;entryX=0.5;entryY=1;entryDx=0;entryDy=0;fillColor=#dae8fc;strokeColor=#6c8ebf;" parent="1" source="20" target="24" edge="1">
                    <mxGeometry relative="1" as="geometry">
                        <Array as="points">
                            <mxPoint x="1000" y="300"/>
                        </Array>
                    </mxGeometry>
                </mxCell>
                <mxCell id="20" value="&lt;span&gt;&lt;font&gt;feature_2&lt;/font&gt;&lt;/span&gt;&lt;div&gt;&lt;font&gt;ok&lt;/font&gt;&lt;/div&gt;" style="ellipse;whiteSpace=wrap;html=1;aspect=fixed;fillColor=#dae8fc;strokeColor=#6c8ebf;" parent="1" vertex="1">
                    <mxGeometry x="840" y="260" width="80" height="80" as="geometry"/>
                </mxCell>
                <mxCell id="24" value="&lt;span&gt;&lt;font&gt;feature_2&lt;/font&gt;&lt;/span&gt;&lt;div&gt;&lt;font&gt;ok&lt;/font&gt;&lt;/div&gt;" style="ellipse;whiteSpace=wrap;html=1;aspect=fixed;fillColor=#ffe6cc;strokeColor=#d79b00;" parent="1" vertex="1">
                    <mxGeometry x="960" y="160" width="80" height="80" as="geometry"/>
                </mxCell>
                <mxCell id="27" value="&lt;font&gt;checkout&lt;/font&gt;" style="text;strokeColor=none;align=center;fillColor=none;html=1;verticalAlign=middle;whiteSpace=wrap;rounded=0;" parent="1" vertex="1">
                    <mxGeometry x="240" y="260" width="60" height="30" as="geometry"/>
                </mxCell>
                <mxCell id="28" value="&lt;font&gt;checkout&lt;/font&gt;" style="text;strokeColor=none;align=center;fillColor=none;html=1;verticalAlign=middle;whiteSpace=wrap;rounded=0;" parent="1" vertex="1">
                    <mxGeometry x="315" y="455" width="60" height="30" as="geometry"/>
                </mxCell>
                <mxCell id="29" value="&lt;font&gt;checkout&lt;/font&gt;" style="text;strokeColor=none;align=center;fillColor=none;html=1;verticalAlign=middle;whiteSpace=wrap;rounded=0;" parent="1" vertex="1">
                    <mxGeometry x="315" y="355" width="60" height="30" as="geometry"/>
                </mxCell>
                <mxCell id="30" value="&lt;font&gt;commit&lt;/font&gt;" style="text;strokeColor=none;align=center;fillColor=none;html=1;verticalAlign=middle;whiteSpace=wrap;rounded=0;" parent="1" vertex="1">
                    <mxGeometry x="610" y="330" width="60" height="30" as="geometry"/>
                </mxCell>
                <mxCell id="31" value="&lt;font&gt;commit&lt;/font&gt;" style="text;strokeColor=none;align=center;fillColor=none;html=1;verticalAlign=middle;whiteSpace=wrap;rounded=0;" parent="1" vertex="1">
                    <mxGeometry x="770" y="430" width="60" height="30" as="geometry"/>
                </mxCell>
                <mxCell id="63" style="edgeStyle=none;html=1;exitX=1;exitY=0.5;exitDx=0;exitDy=0;entryX=0.5;entryY=1;entryDx=0;entryDy=0;fillColor=#d5e8d4;strokeColor=#82b366;" parent="1" source="16" target="20" edge="1">
                    <mxGeometry relative="1" as="geometry">
                        <Array as="points">
                            <mxPoint x="880" y="500"/>
                        </Array>
                    </mxGeometry>
                </mxCell>
                <mxCell id="32" value="&lt;font&gt;pull&lt;/font&gt;&lt;div&gt;&lt;font&gt;request&lt;/font&gt;&lt;/div&gt;" style="text;strokeColor=none;align=center;fillColor=none;html=1;verticalAlign=middle;whiteSpace=wrap;rounded=0;" parent="1" vertex="1">
                    <mxGeometry x="880" y="400" width="60" height="30" as="geometry"/>
                </mxCell>
                <mxCell id="33" value="&lt;font&gt;pull&lt;/font&gt;&lt;div&gt;&lt;font&gt;request&lt;/font&gt;&lt;/div&gt;" style="text;strokeColor=none;align=center;fillColor=none;html=1;verticalAlign=middle;whiteSpace=wrap;rounded=0;" parent="1" vertex="1">
                    <mxGeometry x="720" y="355" width="60" height="30" as="geometry"/>
                </mxCell>
                <mxCell id="34" value="&lt;font&gt;merge&lt;/font&gt;" style="text;strokeColor=none;align=center;fillColor=none;html=1;verticalAlign=middle;whiteSpace=wrap;rounded=0;" parent="1" vertex="1">
                    <mxGeometry x="690" y="230" width="60" height="30" as="geometry"/>
                </mxCell>
                <mxCell id="52" style="edgeStyle=none;html=1;exitX=0.5;exitY=1;exitDx=0;exitDy=0;entryX=0;entryY=0.5;entryDx=0;entryDy=0;fillColor=#dae8fc;strokeColor=#6c8ebf;" parent="1" source="2" target="5" edge="1">
                    <mxGeometry relative="1" as="geometry">
                        <mxPoint x="400" y="320" as="targetPoint"/>
                        <Array as="points">
                            <mxPoint x="360" y="300"/>
                        </Array>
                    </mxGeometry>
                </mxCell>
                <mxCell id="54" style="edgeStyle=none;html=1;exitX=0.5;exitY=1;exitDx=0;exitDy=0;entryX=0;entryY=0.5;entryDx=0;entryDy=0;fillColor=#f8cecc;strokeColor=#b85450;" parent="1" source="5" target="8" edge="1">
                    <mxGeometry relative="1" as="geometry">
                        <mxPoint x="440" y="360" as="sourcePoint"/>
                        <mxPoint x="480" y="440" as="targetPoint"/>
                        <Array as="points">
                            <mxPoint x="440" y="400"/>
                        </Array>
                    </mxGeometry>
                </mxCell>
                <mxCell id="55" style="edgeStyle=none;html=1;exitX=0.5;exitY=1;exitDx=0;exitDy=0;entryX=0;entryY=0.5;entryDx=0;entryDy=0;fillColor=#d5e8d4;strokeColor=#82b366;" parent="1" source="5" target="10" edge="1">
                    <mxGeometry relative="1" as="geometry">
                        <mxPoint x="440" y="480" as="sourcePoint"/>
                        <mxPoint x="480" y="560" as="targetPoint"/>
                        <Array as="points">
                            <mxPoint x="440" y="500"/>
                        </Array>
                    </mxGeometry>
                </mxCell>
                <mxCell id="66" value="&lt;font&gt;merge&lt;/font&gt;" style="text;strokeColor=none;align=center;fillColor=none;html=1;verticalAlign=middle;whiteSpace=wrap;rounded=0;" parent="1" vertex="1">
                    <mxGeometry x="850" y="230" width="60" height="30" as="geometry"/>
                </mxCell>
                <mxCell id="68" value="&lt;font&gt;merge&lt;/font&gt;" style="text;strokeColor=none;align=center;fillColor=none;html=1;verticalAlign=middle;whiteSpace=wrap;rounded=0;" parent="1" vertex="1">
                    <mxGeometry x="970" y="130" width="60" height="30" as="geometry"/>
                </mxCell>
                <mxCell id="69" value="&lt;font&gt;pull&lt;/font&gt;&lt;div&gt;&lt;font&gt;request&lt;/font&gt;&lt;/div&gt;" style="text;strokeColor=none;align=center;fillColor=none;html=1;verticalAlign=middle;whiteSpace=wrap;rounded=0;" parent="1" vertex="1">
                    <mxGeometry x="1000" y="260" width="60" height="30" as="geometry"/>
                </mxCell>
            </root>
        </mxGraphModel>
    </diagram>
</mxfile>